<svg xmlns="http://www.w3.org/2000/svg" id="Line" height="512" viewBox="0 0 496 496" width="512"><g><g><g><path d="m232 328.04c-10.9.47-21.33 4.63-29.57 11.84l-23.28 20.36 12.85-64.24 16.88-11.25c4.45-2.97 7.12-7.96 7.12-13.31v-23.44h.01c.13 16.01 6.08 30.79 15.94 42.17 9.99 11.51 23.99 19.53 40.05 21.83v8c0 4.42-3.58 8-8 8h-29.96c-.68 0-1.36.01-2.04.04z" fill="#b27946"></path></g><g><path d="m167.23 252.46-56.37 131.54h-.01-25.85c-4.16 0-8.24-.83-12.01-2.39s-7.24-3.86-10.18-6.8c-2.18-2.18-3.88-4.75-5.04-7.54s-1.77-5.81-1.77-8.9c0-8.81 4.98-16.86 12.85-20.8l8.42-4.2c3.29-1.65 5.97-4.15 7.83-7.16s2.9-6.53 2.9-10.21v-20c0-17.67 14.33-32 32-32h16c11.93 0 22.83-4.35 31.23-11.54z" fill="#b27946"></path></g><g><path d="m152 153.94v30.06c0 26.51-21.49 48-48 48h-13.39c-19.11 0-34.61 15.5-34.61 34.61 0 1.69.12 3.35.36 4.99-5.08-3.68-9.18-8.49-11.99-13.98-2.82-5.49-4.37-11.66-4.37-18.07 0-8.82 2.89-16.97 7.78-23.55 7.2-9.71 18.75-16 31.77-16h26.39c25.44 0 46.06-20.62 46.06-46.06z" fill="#b27946"></path></g><g><path d="m152 123.87v30.07c0 25.44-20.62 46.06-46.06 46.06h-26.39c-13.02 0-24.57 6.29-31.77 16l-23.78-16-6.06-6.06c-3.18-3.18-5.66-6.93-7.36-11.01-1.68-4.08-2.58-8.49-2.58-12.99 0-18.74 15.2-33.94 33.94-33.94h70.06c14.8 0 28.56-4.47 40-12.13z" fill="#b27946"></path></g><g><path d="m191.03 224.97c3.31 3.3 7.57 5.65 12.34 6.58l-.14.77c-1.05-.21-2.13-.32-3.23-.32h-13.45c-6.4 0-12.18 3.81-14.71 9.7l-4.61 10.76c-8.4 7.19-19.3 11.54-31.23 11.54h-16c-17.67 0-32 14.33-32 32v20c0-7.35-4.16-14.08-10.73-17.37l-2.14-1.06c-5.86-2.93-10.64-7.4-13.96-12.77-2.47-3.98-4.12-8.47-4.81-13.2-.24-1.64-.36-3.3-.36-4.99 0-19.11 15.5-34.61 34.61-34.61h13.39c26.51 0 48-21.49 48-48v-30.06-30.07-27.87c0-24.3 9.85-46.3 25.78-62.22 15.92-15.93 37.92-25.78 62.22-25.78 31.79 0 59.63 16.85 75.1 42.11v.01c-7.97 5.44-14.61 12.91-19.1 21.88-9.81-19.61-29.85-32-51.78-32h-12.22c-5.22 7.82-9.22 16.34-11.91 25.24-2.7 8.9-4.09 18.2-4.09 27.6v3.6l.01.01c-19.65 17.57-32.01 43.11-32.01 71.55v40c0 6.62 2.69 12.62 7.03 16.97z" fill="#b27946"></path></g><g><path d="m376 192.65c0-22.45-18.2-40.65-40.65-40.65h-15.8c-7.21 0-14.12-2.04-20.03-5.69-5.91-3.66-10.82-8.93-14.05-15.38-1.67-3.35-4.23-6.08-7.29-7.98-3.07-1.89-6.66-2.95-10.4-2.95-10.93 0-19.78 8.85-19.78 19.78v12.22c-17.67 0-32 14.33-32 32h-8c-13.25 0-24 10.75-24 24v-40c0-28.44 12.36-53.98 32.01-71.55 16.98-15.21 39.41-24.45 63.99-24.45h16 16c24.58 0 47.01 9.24 63.99 24.45 19.65 17.57 32.01 43.11 32.01 71.55v40c0-13.25-10.75-24-24-24h-8z" fill="#b27946"></path></g><g><path d="m376 92.84v3.6l-.01.01c-16.98-15.21-39.41-24.45-63.99-24.45h-16c4.49-8.97 11.13-16.44 19.1-21.88 9.45-6.48 20.79-10.12 32.68-10.12h12.22c5.22 7.82 9.22 16.34 11.91 25.24 2.7 8.9 4.09 18.2 4.09 27.6z" fill="#fcd770"></path></g><g><path d="m296 72h-16c-24.58 0-47.01 9.24-63.99 24.45l-.01-.01v-3.6c0-9.4 1.39-18.7 4.09-27.6 2.69-8.9 6.69-17.42 11.91-25.24h12.22c21.93 0 41.97 12.39 51.78 32z" fill="#fcd770"></path></g><g><path d="m174.27 384.65 30.04 35.04-23.06 23.06c-8.48 8.48-19.99 13.25-32 13.25-12.49 0-23.81-5.06-32-13.25s-13.25-19.51-13.25-32c0-3.55.36-7.07 1.07-10.53s1.77-6.84 3.16-10.1l2.62-6.12h.01l56.37-131.54 4.61-10.76c2.53-5.89 8.31-9.7 14.71-9.7h13.45c1.1 0 2.18.11 3.23.32 7.29 1.5 12.77 7.94 12.77 15.68v23.44c0 5.35-2.67 10.34-7.12 13.31l-16.88 11.25-12.85 64.24z" fill="#f0d0b4"></path></g><g><path d="m435.15 379.76 20.85-67.76-11.31-11.31c-3-3-4.69-7.07-4.69-11.32v-25.37c0-8.84 7.16-16 16-16h16c8.84 0 16 7.16 16 16v156.26c0 9.87-4 18.8-10.47 25.27s-15.4 10.47-25.27 10.47c-7.95 0-15.67-2.65-21.94-7.53l-40.38-31.4 37.65-43.93z" fill="#f0d0b4"></path></g><g><path d="m384 184c13.25 0 24 10.75 24 24 0 6.62-2.69 12.62-7.03 16.97-4.35 4.34-10.35 7.03-16.97 7.03h-8v-39.35-8.65z" fill="#f0d0b4"></path></g><g><path d="m376 232v15.43c0 16.23-5.97 31.23-15.95 42.74-9.99 11.51-23.99 19.53-40.05 21.83v8c0 4.42 3.58 8 8 8 0 19.61-11.08 37.54-28.62 46.31l-3.38 1.69-3.38-1.69c-17.54-8.77-28.62-26.7-28.62-46.31 4.42 0 8-3.58 8-8v-8c-16.06-2.3-30.06-10.32-40.05-21.83-9.86-11.38-15.81-26.16-15.94-42.17-.01-.19-.01-.38-.01-.57v-15.43-48c0-17.67 14.33-32 32-32v-12.22c0-10.93 8.85-19.78 19.78-19.78 3.74 0 7.33 1.06 10.4 2.95 3.06 1.9 5.62 4.63 7.29 7.98 3.23 6.45 8.14 11.72 14.05 15.38 5.91 3.65 12.82 5.69 20.03 5.69h15.8c22.45 0 40.65 18.2 40.65 40.65z" fill="#f0d0b4"></path></g><g><path d="m216 184v48h-8c-1.58 0-3.13-.15-4.63-.45-4.77-.93-9.03-3.28-12.34-6.58-4.34-4.35-7.03-10.35-7.03-16.97 0-13.25 10.75-24 24-24z" fill="#f0d0b4"></path></g><g><path d="m216.06 407.94-11.75 11.75-30.04-35.04 4.88-24.41 23.28-20.36c8.24-7.21 18.67-11.37 29.57-11.84.01 12.58 2.97 24.78 8.45 35.74s13.48 20.66 23.55 28.22l32-16 32 16c10.07-7.56 18.07-17.26 23.55-28.22s8.44-23.16 8.45-35.74c10.9.47 21.33 4.63 29.57 11.84l38.02 33.26-37.65 43.93-13.95-10.85c-.12 6.78-1.47 13.49-3.99 19.79l-3.99 9.96c-5.29 13.23-8.01 27.35-8.01 41.6v10.43h-128v-10.43c0-14.25-2.72-28.37-8.01-41.6l-3.99-9.96c-1.32-3.31-2.32-6.72-2.99-10.2-.5-2.6-.82-5.23-.95-7.87z" fill="#5cd6b3"></path></g><g><path d="m357.96 328c.68 0 1.36.01 2.04.04-.01 12.58-2.97 24.78-8.45 35.74s-13.48 20.66-23.55 28.22l-32-16 3.38-1.69c17.54-8.77 28.62-26.7 28.62-46.31z" fill="#48cfad"></path></g><g><path d="m296 376-32 16c-10.07-7.56-18.07-17.26-23.55-28.22s-8.44-23.16-8.45-35.74c.68-.03 1.36-.04 2.04-.04h29.96c0 19.61 11.08 37.54 28.62 46.31z" fill="#48cfad"></path></g><g><path d="m248 232h96c0 13.26-5.37 25.26-14.06 33.94-8.68 8.69-20.68 14.06-33.94 14.06-26.51 0-48-21.49-48-48z" fill="#ff826e"></path></g></g><g><path d="m240 232c0 30.878 25.121 56 56 56s56-25.122 56-56v-8h-112zm95.196 8c-3.717 18.235-19.88 32-39.196 32s-35.479-13.765-39.196-32z"></path><path d="m253.657 221.657 21.656-21.657-21.656-21.657-11.314 11.314 10.344 10.343-10.344 10.343z"></path><path d="m349.657 210.343-10.344-10.343 10.344-10.343-11.314-11.314-21.656 21.657 21.656 21.657z"></path><circle cx="328" cy="424" r="8"></circle><circle cx="328" cy="456" r="8"></circle><path d="m472 240h-16c-13.233 0-24 10.767-24 24v25.373c0 6.411 2.496 12.438 7.029 16.971l7.908 7.908-15.804 51.361-36.293-31.756c-10.21-8.936-23.307-13.857-36.875-13.857h-29.965v-1.399c14.743-3.568 28.08-11.648 38.094-23.193 11.547-13.314 17.906-30.352 17.906-47.976v-7.432c17.645 0 32-14.355 32-32v-40c0-29.428-12.288-56.037-32-74.974v-.182c0-20.454-5.997-40.262-17.344-57.282l-2.375-3.562h-16.504c-10.802 0-21.132 2.587-30.295 7.316-18.058-24.753-46.469-39.316-77.482-39.316-52.935 0-96 43.065-96 96v23.39c-9.421 5.464-20.347 8.61-32 8.61h-70.059c-23.127 0-41.941 18.814-41.941 41.941 0 11.203 4.362 21.735 12.284 29.657l6.059 6.059 11.314-11.313-6.059-6.059c-4.9-4.9-7.599-11.414-7.599-18.343.001-14.305 11.639-25.942 25.942-25.942h70.059c11.375 0 22.193-2.402 32-6.7v16.641c0 20.986-17.073 38.059-38.059 38.059h-26.387c-26.222 0-47.554 21.333-47.554 47.554 0 14.093 6.322 27.483 17.048 36.465 2.756 12.326 10.854 22.877 22.506 28.702l2.135 1.067c3.893 1.947 6.311 5.86 6.311 10.212s-2.418 8.265-6.312 10.211l-8.414 4.207c-10.655 5.328-17.274 16.039-17.274 27.952 0 8.348 3.251 16.195 9.153 22.098l9.19 9.19 11.313-11.314-9.189-9.189c-2.881-2.88-4.467-6.71-4.467-10.784 0-5.814 3.23-11.041 8.431-13.641l8.414-4.207c9.347-4.675 15.155-14.071 15.155-24.523v-20c0-13.233 10.767-24 24-24h16c5.12 0 10.176-.708 15.037-2.063l-50.158 117.036c-3.237 7.556-4.879 15.554-4.879 23.772 0 29.365 23.89 53.255 53.255 53.255 14.225 0 27.598-5.54 37.657-15.598l24.036-24.036c.488 1.552 1.02 3.094 1.629 4.616l3.984 9.963c4.936 12.339 7.438 25.334 7.438 38.625v18.43h144v-18.431c0-13.29 2.503-26.285 7.438-38.625l3.984-9.962c1.042-2.606 1.895-5.262 2.583-7.954l43.403 33.758c7.638 5.941 17.175 9.214 26.853 9.214 24.119 0 43.74-19.621 43.74-43.738v-156.262c0-13.233-10.767-24-24-24zm-264-16c-8.822 0-16-7.178-16-16s7.178-16 16-16zm5.313 67.406c2.223-1.482 4.14-3.301 5.72-5.356 2.034 3.276 4.319 6.413 6.874 9.358 10.014 11.545 23.351 19.625 38.094 23.193v1.399h-29.965c-13.568 0-26.665 4.921-36.876 13.856l-5.542 4.849 7.577-37.887zm43.219 44.594c2.087 15.732 10.277 29.817 22.795 39.392l-14.315 7.158c-13.722-11.843-22.52-28.594-24.554-46.55zm78.936 0h16.074c-2.034 17.956-10.832 34.707-24.554 46.55l-14.315-7.158c12.517-9.575 20.708-23.66 22.795-39.392zm32.532-88.568c0 28.294-21.122 52.647-49.132 56.649l-6.868.981v14.938c0 5.752 3.062 10.79 7.631 13.61-1.817 14.312-10.513 26.794-23.631 33.437-13.118-6.643-21.814-19.125-23.631-33.437 4.569-2.82 7.631-7.858 7.631-13.61v-14.938l-6.868-.981c-28.01-4.002-49.132-28.355-49.132-56.649v-63.432c0-13.234 10.767-24 24-24h8v-20.223c0-6.494 5.283-11.777 11.777-11.777 4.489 0 8.526 2.495 10.534 6.51 7.86 15.723 23.664 25.49 41.243 25.49h15.8c18.001 0 32.646 14.645 32.646 32.645zm16-23.432v-32c8.822 0 16 7.178 16 16s-7.178 16-16 16zm16-56v12.305c-4.711-2.732-10.174-4.305-16-4.305v-16c0-26.467-21.533-48-48-48v16c16.44 0 30.018 12.463 31.797 28.437-8.615-7.727-19.987-12.437-32.443-12.437h-15.8c-11.479 0-21.8-6.378-26.934-16.645-4.733-9.471-14.254-15.355-24.843-15.355-15.316 0-27.777 12.46-27.777 27.777v5.027c-15.649 3.19-27.996 15.548-31.187 31.196h-.813c-5.826 0-11.289 1.573-16 4.305v-12.305c0-48.523 39.477-88 88-88h32c48.523 0 88 39.477 88 88zm-175.011-88.219c1.69-11.213 5.54-21.984 11.414-31.781h7.82c14.22 0 27.365 5.909 36.649 16h-.872c-20.186 0-39.043 5.787-55.011 15.781zm130.609-31.781c5.874 9.796 9.724 20.568 11.414 31.781-15.969-9.994-34.826-15.781-55.012-15.781h-.872c9.284-10.091 22.429-16 36.649-16zm-276.044 160h26.388c14.277 0 27.27-5.573 36.943-14.646-4.225 17.557-20.051 30.646-38.885 30.646h-13.39c-18.368 0-34.059 11.683-40.032 28.009-1.673-3.89-2.578-8.122-2.578-12.455 0-17.399 14.155-31.554 31.554-31.554zm56.446 48h-16c-20.432 0-37.324 15.402-39.702 35.204l-1.588-.794c-9.073-4.536-14.71-13.656-14.71-23.8 0-14.673 11.938-26.61 26.61-26.61h13.39c30.879 0 56-25.122 56-56v-56.044c19.418-14.61 32-37.84 32-63.956h-16c0 16.188-6.053 30.981-16 42.264v-10.264c0-44.112 35.888-80 80-80 25.667 0 49.198 11.971 64.265 32.345-2.998 2.643-5.765 5.575-8.265 8.767-12.328-15.74-31.199-25.112-51.777-25.112h-16.504l-2.375 3.563c-11.347 17.02-17.344 36.827-17.344 57.281v.182c-19.712 18.937-32 45.546-32 74.974v40c0 6.127 1.734 11.856 4.733 16.727-7.173 1.789-13.24 6.815-16.243 13.819l-3.838 8.957c-7.013 5.491-15.698 8.497-24.652 8.497zm39.599 181.088c-7.037 7.037-16.394 10.912-26.344 10.912-20.542 0-37.255-16.712-37.255-37.255 0-6.039 1.206-11.917 3.586-17.47l63.611-148.426c1.262-2.946 4.148-4.849 7.354-4.849h13.449c4.411 0 8 3.589 8 8v23.437c0 2.681-1.332 5.169-3.563 6.657l-19.632 13.088-24.65 123.25 15.689 3.138 3.047-15.236 14.521 16.941zm55.818-4.085-3.984-9.963c-2.277-5.694-3.433-11.69-3.433-17.823 0-7.412 1.752-14.833 5.066-21.462l2.089-4.178-14.311-7.154-2.089 4.177c-4.338 8.675-6.655 18.369-6.74 28.07l-3.257 3.257-21.881-25.528 3.585-17.925 21.231-18.577c4.856-4.249 10.627-7.218 16.8-8.734 2.562 24.138 15.124 46.551 34.706 61.237l3.955 2.967 24.846-12.423v91.056h-48v-2.431c0-15.335-2.888-30.329-8.583-44.566zm133.15-9.962-3.984 9.962c-5.695 14.237-8.583 29.231-8.583 44.566v2.431h-48v-91.056l24.845 12.422 3.955-2.967c19.582-14.686 32.144-37.099 34.706-61.237 6.173 1.516 11.944 4.485 16.799 8.734l32.059 28.052-27.531 32.119-4.92-3.827c-.42-8.884-2.692-17.69-6.668-25.641l-2.089-4.178-14.311 7.154 2.089 4.179c3.314 6.628 5.066 14.049 5.066 21.461 0 6.135-1.155 12.131-3.433 17.826zm115.433-2.779c0 15.295-12.443 27.738-27.738 27.738-6.138 0-12.185-2.075-17.029-5.843l-33.755-26.254 22.125-25.812-7.248 23.556 15.293 4.705 33.416-108.604-14.719-14.719c-1.512-1.511-2.344-3.521-2.344-5.657v-25.372c0-4.411 3.589-8 8-8h16c4.411 0 8 3.589 8 8v156.262z"></path></g></g></svg>